<svg xmlns:dc="http://purl.org/dc/elements/1.1/" xmlns:cc="http://creativecommons.org/ns#" xmlns:rdf="http://www.w3.org/1999/02/22-rdf-syntax-ns#" xmlns:svg="http://www.w3.org/2000/svg" xmlns="http://www.w3.org/2000/svg" xmlns:sodipodi="http://sodipodi.sourceforge.net/DTD/sodipodi-0.dtd" xmlns:inkscape="http://www.inkscape.org/namespaces/inkscape" viewBox="0 0 333.33269 333.33269" version="1.1" x="0px" y="0px"><path d="m 273.79307,188.09488 c -29.99994,-77.14271 -47.14276,-64.2856 -107.14265,-64.2856 -59.99988,0 -75.625563,-11.44283 -106.379793,64.99703 -30.7628,76.43128 -30.7628,76.43128 -22.19139,85.00269 8.57141,8.57141 8.57141,8.57141 42.85706,-42.85706 34.285653,-51.42848 21.428533,-42.85706 21.428533,21.42853 0,64.28559 -21.428533,64.28559 64.28559,64.28559 85.71412,0 64.28559,0 64.28559,-64.28559 0,-64.28559 -12.85711,-72.85701 21.42853,-21.42853 34.28565,51.42847 34.28565,51.42847 42.85707,42.85706 8.57141,-8.57141 8.57141,-8.57141 -21.42854,-85.71412 z M 123.79336,59.523692 c 0,25.714237 17.14283,42.857058 42.85706,42.857058 25.71424,0 42.85706,-17.142821 42.85706,-42.857058 0,-25.714233 -17.14282,-42.857057 -42.85706,-42.857057 -25.71423,0 -42.85706,17.142824 -42.85706,42.857057 z" style="" fill="#000000" fill-opacity="1" stroke="none"/></svg>