<?xml version="1.0" standalone="no"?>
<!DOCTYPE svg PUBLIC "-//W3C//DTD SVG 20010904//EN"
 "http://www.w3.org/TR/2001/REC-SVG-20010904/DTD/svg10.dtd">
<svg version="1.0" xmlns="http://www.w3.org/2000/svg"
 width="813.000000pt" height="1280.000000pt" viewBox="0 0 813.000000 1280.000000"
 preserveAspectRatio="xMidYMid meet">
<metadata>
Created by potrace 1.15, written by Peter Selinger 2001-2017
</metadata>
<g transform="translate(0.000000,1280.000000) scale(0.100000,-0.100000)"
fill="#000000" stroke="none">
<path d="M3950 12784 c-117 -32 -214 -90 -490 -294 -239 -177 -376 -228 -585
-216 -55 3 -181 15 -280 27 -383 45 -553 7 -685 -153 -66 -79 -109 -158 -212
-393 -110 -250 -163 -338 -253 -424 -87 -81 -168 -128 -404 -230 -101 -44
-212 -96 -248 -116 -153 -84 -242 -179 -285 -302 -21 -61 -23 -85 -22 -238 0
-98 8 -220 17 -289 59 -422 32 -517 -254 -901 -250 -336 -293 -483 -209 -707
29 -78 88 -172 211 -339 148 -200 211 -302 244 -400 26 -77 28 -96 28 -224 0
-79 -10 -216 -22 -315 -46 -379 -15 -540 131 -675 80 -74 168 -124 379 -216
305 -132 405 -194 495 -307 46 -57 141 -243 230 -447 127 -291 239 -416 414
-461 88 -23 270 -21 485 5 205 25 377 27 460 6 124 -32 192 -72 435 -250 285
-210 379 -255 535 -255 152 0 260 51 513 239 325 242 413 281 632 281 63 0
192 -9 285 -21 190 -23 395 -27 469 -10 184 44 301 170 430 466 89 204 184
390 230 447 90 113 190 175 495 307 211 92 299 142 379 216 146 135 177 296
131 675 -12 97 -22 237 -22 315 -1 131 1 145 30 227 35 100 91 194 213 358
230 308 289 436 277 595 -10 132 -72 256 -246 490 -194 260 -242 349 -267 487
-18 97 -15 197 17 463 47 407 2 578 -193 715 -89 63 -145 92 -362 186 -221 96
-305 145 -391 225 -90 86 -143 175 -250 418 -134 306 -192 399 -297 477 -126
93 -283 112 -603 75 -99 -12 -225 -24 -280 -27 -209 -12 -346 39 -585 216
-188 139 -316 225 -380 254 -121 55 -234 68 -340 40z"/>
<path d="M1676 4890 c-3 -8 -75 -278 -161 -600 -86 -322 -214 -801 -285 -1065
-71 -264 -215 -802 -320 -1195 -105 -393 -232 -867 -282 -1053 -50 -186 -89
-340 -86 -342 3 -3 115 38 249 91 134 52 341 133 459 179 118 46 319 125 445
174 217 85 231 89 246 73 9 -9 218 -269 464 -577 245 -308 450 -561 454 -563
4 -1 37 109 74 245 36 137 282 1055 546 2042 265 987 481 1797 481 1801 0 3
-36 11 -80 18 -144 21 -240 72 -507 270 -172 129 -284 195 -378 225 -96 30
-299 30 -565 -2 -289 -35 -427 -20 -550 59 -60 38 -132 116 -171 184 -18 32
-30 45 -33 36z"/>
<path d="M6505 4838 c-91 -141 -205 -216 -362 -238 -98 -14 -187 -10 -453 21
-125 15 -208 19 -290 16 -192 -9 -278 -48 -545 -246 -279 -207 -361 -251 -516
-275 l-76 -11 187 -700 c103 -385 349 -1301 545 -2035 196 -734 361 -1341 365
-1349 5 -10 142 154 465 560 252 316 461 578 465 582 4 5 110 -32 236 -82 769
-301 1157 -452 1160 -449 3 4 -41 171 -361 1363 -73 275 -211 788 -305 1140
-321 1200 -472 1760 -474 1762 -1 1 -19 -26 -41 -59z"/>
</g>
</svg>
