<svg xmlns="http://www.w3.org/2000/svg" xmlns:xlink="http://www.w3.org/1999/xlink" version="1.1" x="0px" y="0px" viewBox="0 0 100 100" enable-background="new 0 0 100 100" xml:space="preserve"><path d="M83.7,30.7l-6.9-6.9c-1.1-1.1-2.6-1.8-4.3-1.8s-3.1,0.6-4.3,1.8L40.4,51.7l-9-9c-1.3-1.3-3-2-4.9-2c-1.8,0-3.6,0.7-4.9,2  l-5.5,5.5c-1.3,1.3-2,3-2,4.9s0.7,3.6,2,4.9l20.1,20.1c1.1,1.1,2.6,1.8,4.3,1.8s3.1-0.6,4.3-1.8l38.9-38.9c1.1-1.1,1.8-2.6,1.8-4.3  S84.8,31.8,83.7,30.7z M81,36.6L42.2,75.5c-0.9,0.9-2.4,0.9-3.3,0L18.8,55.3c-0.6-0.6-0.9-1.4-0.9-2.3c0-0.9,0.3-1.7,0.9-2.3  l5.5-5.5c0.6-0.6,1.4-0.9,2.3-0.9c0.9,0,1.7,0.3,2.3,0.9L39,55.6c0.7,0.7,1.9,0.7,2.6,0l29.2-29.2c0.9-0.9,2.4-0.9,3.3,0l6.9,6.9  c0.4,0.4,0.7,1,0.7,1.6C81.7,35.6,81.5,36.2,81,36.6z"></path></svg>