<?xml version="1.0" encoding="UTF-8" standalone="no"?>
<svg
   xmlns:dc="http://purl.org/dc/elements/1.1/"
   xmlns:cc="http://creativecommons.org/ns#"
   xmlns:rdf="http://www.w3.org/1999/02/22-rdf-syntax-ns#"
   xmlns:svg="http://www.w3.org/2000/svg"
   xmlns="http://www.w3.org/2000/svg"
   xmlns:sodipodi="http://sodipodi.sourceforge.net/DTD/sodipodi-0.dtd"
   xmlns:inkscape="http://www.inkscape.org/namespaces/inkscape"
   version="1.1"
   x="0px"
   y="0px"
   viewBox="0 0 100 100"
   enable-background="new 0 0 100 100"
   xml:space="preserve"
   id="svg4"
   sodipodi:docname="ld.svg"
   inkscape:export-filename="ld.png"
   inkscape:export-xdpi="384"
   inkscape:export-ydpi="384"
   inkscape:version="0.92.4 (5da689c313, 2019-01-14)"><metadata
     id="metadata10"><rdf:RDF><cc:Work
         rdf:about=""><dc:format>image/svg+xml</dc:format><dc:type
           rdf:resource="http://purl.org/dc/dcmitype/StillImage" /><dc:title></dc:title></cc:Work></rdf:RDF></metadata><defs
     id="defs8" /><sodipodi:namedview
     pagecolor="#ffffff"
     bordercolor="#666666"
     borderopacity="1"
     objecttolerance="10"
     gridtolerance="10"
     guidetolerance="10"
     inkscape:pageopacity="0"
     inkscape:pageshadow="2"
     inkscape:window-width="838"
     inkscape:window-height="480"
     id="namedview6"
     showgrid="false"
     inkscape:zoom="2.36"
     inkscape:cx="49.576271"
     inkscape:cy="49.152542"
     inkscape:window-x="0"
     inkscape:window-y="28"
     inkscape:window-maximized="0"
     inkscape:current-layer="svg4" /><path
     style="fill:#faa61a;fill-rule:evenodd;stroke:#000000;stroke-width:1px;stroke-linecap:butt;stroke-linejoin:miter;stroke-opacity:1;fill-opacity:1"
     d="M 40.4,51.7 72.457627,23.305085 85.169492,35.169492 40.677966,79.237288 13.983051,53.389831 27.966102,42.372881 Z"
     id="path4522"
     inkscape:connector-curvature="0" /><path
     d="M83.7,30.7l-6.9-6.9c-1.1-1.1-2.6-1.8-4.3-1.8s-3.1,0.6-4.3,1.8L40.4,51.7l-9-9c-1.3-1.3-3-2-4.9-2c-1.8,0-3.6,0.7-4.9,2  l-5.5,5.5c-1.3,1.3-2,3-2,4.9s0.7,3.6,2,4.9l20.1,20.1c1.1,1.1,2.6,1.8,4.3,1.8s3.1-0.6,4.3-1.8l38.9-38.9c1.1-1.1,1.8-2.6,1.8-4.3  S84.8,31.8,83.7,30.7z M81,36.6L42.2,75.5c-0.9,0.9-2.4,0.9-3.3,0L18.8,55.3c-0.6-0.6-0.9-1.4-0.9-2.3c0-0.9,0.3-1.7,0.9-2.3  l5.5-5.5c0.6-0.6,1.4-0.9,2.3-0.9c0.9,0,1.7,0.3,2.3,0.9L39,55.6c0.7,0.7,1.9,0.7,2.6,0l29.2-29.2c0.9-0.9,2.4-0.9,3.3,0l6.9,6.9  c0.4,0.4,0.7,1,0.7,1.6C81.7,35.6,81.5,36.2,81,36.6z"
     id="path2"
     style="fill:#000000;fill-opacity:0.98823529" /></svg>