<svg xmlns="http://www.w3.org/2000/svg" xmlns:xlink="http://www.w3.org/1999/xlink" version="1.1" x="0px" y="0px" viewBox="0 0 100 100" enable-background="new 0 0 100 100" xml:space="preserve"><path d="M50,5C25.1,5,5,25.1,5,50c0,24.8,20.1,45,45,45c24.9,0,45-20.2,45-45C95,25.1,74.9,5,50,5L50,5z M79.3,44.4  c0,1.3-0.6,2.4-1.7,3.6L67.2,58.1l2.5,15.5c0.5,3.6-3.5,5.6-7,3.7l-12.8-6.7L37,77.3c-3.3,2-7.5-0.7-6.8-4.8c0,0,0-0.1,2.6-14.5  c-9.4-9.2-10.5-10.2-10.5-10.2c-0.4-0.5-1.6-1.7-1.6-3.5c0-2.3,1.6-4.1,4.2-4.5l14.5-2.1l6.4-13.1c0.9-1.8,2.5-2.9,4.2-2.9  c1.7,0,3.3,1.1,4.2,3l6.5,12.9L75,39.9C77.6,40.3,79.3,42.1,79.3,44.4z"/></svg>