<?xml version="1.0" encoding="UTF-8" standalone="no"?>
<svg
   xmlns:dc="http://purl.org/dc/elements/1.1/"
   xmlns:cc="http://creativecommons.org/ns#"
   xmlns:rdf="http://www.w3.org/1999/02/22-rdf-syntax-ns#"
   xmlns:svg="http://www.w3.org/2000/svg"
   xmlns="http://www.w3.org/2000/svg"
   xmlns:sodipodi="http://sodipodi.sourceforge.net/DTD/sodipodi-0.dtd"
   xmlns:inkscape="http://www.inkscape.org/namespaces/inkscape"
   version="1.1"
   x="0px"
   y="0px"
   viewBox="0 0 100 100"
   enable-background="new 0 0 100 100"
   xml:space="preserve"
   id="svg4"
   sodipodi:docname="alliance-ld.svg"
   inkscape:export-filename="/home/user/code/remain-coalition/generated/static/logo/outcome/alliance-ld.png"
   inkscape:export-xdpi="384"
   inkscape:export-ydpi="384"
   inkscape:version="0.92.4 (5da689c313, 2019-01-14)"><metadata
     id="metadata10"><rdf:RDF><cc:Work
         rdf:about=""><dc:format>image/svg+xml</dc:format><dc:type
           rdf:resource="http://purl.org/dc/dcmitype/StillImage" /><dc:title></dc:title></cc:Work></rdf:RDF></metadata><defs
     id="defs8" /><sodipodi:namedview
     pagecolor="#ffffff"
     bordercolor="#666666"
     borderopacity="1"
     objecttolerance="10"
     gridtolerance="10"
     guidetolerance="10"
     inkscape:pageopacity="0"
     inkscape:pageshadow="2"
     inkscape:window-width="1366"
     inkscape:window-height="669"
     id="namedview6"
     showgrid="false"
     inkscape:zoom="2.36"
     inkscape:cx="50"
     inkscape:cy="50"
     inkscape:window-x="0"
     inkscape:window-y="28"
     inkscape:window-maximized="1"
     inkscape:current-layer="svg4" /><circle
     style="opacity:1;fill:#faa61a;fill-opacity:1;stroke:none;stroke-width:10;stroke-linecap:round;stroke-linejoin:round;stroke-miterlimit:4;stroke-dasharray:none;stroke-opacity:1"
     id="path4520"
     cx="50"
     cy="50"
     r="40" /><path
     d="M50,5C25.1,5,5,25.1,5,50c0,24.8,20.1,45,45,45c24.9,0,45-20.2,45-45C95,25.1,74.9,5,50,5L50,5z M79.3,44.4  c0,1.3-0.6,2.4-1.7,3.6L67.2,58.1l2.5,15.5c0.5,3.6-3.5,5.6-7,3.7l-12.8-6.7L37,77.3c-3.3,2-7.5-0.7-6.8-4.8c0,0,0-0.1,2.6-14.5  c-9.4-9.2-10.5-10.2-10.5-10.2c-0.4-0.5-1.6-1.7-1.6-3.5c0-2.3,1.6-4.1,4.2-4.5l14.5-2.1l6.4-13.1c0.9-1.8,2.5-2.9,4.2-2.9  c1.7,0,3.3,1.1,4.2,3l6.5,12.9L75,39.9C77.6,40.3,79.3,42.1,79.3,44.4z"
     id="path2" /></svg>