<svg xmlns="http://www.w3.org/2000/svg" xmlns:xlink="http://www.w3.org/1999/xlink" version="1.1" x="0px" y="0px" viewBox="0 0 100 100" enable-background="new 0 0 100 100" xml:space="preserve"><path d="M50,5C25.1,5,5,25.1,5,50c0,24.9,20.1,45,45,45c24.9,0,45-20.1,45-45C95,25.1,74.9,5,50,5L50,5z M70.8,70.8  c-2.2,2.2-5.7,2.2-7.9,0L50,57.9L37.1,70.8c-2.2,2.2-5.7,2.2-7.9,0c-2.2-2.2-2.2-5.8,0-7.9L42.1,50L29.2,37.1  c-2.2-2.2-2.2-5.8,0-7.9c2.2-2.2,5.8-2.2,7.9,0L50,42.1l12.9-12.9c2.2-2.2,5.8-2.2,7.9,0c2.2,2.2,2.2,5.7,0,7.9L58,50l12.9,12.9  C73.1,65.1,73.1,68.6,70.8,70.8z"/></svg>